<svg width="23" height="27" viewBox="0 0 23 27" fill="none" xmlns="http://www.w3.org/2000/svg">
<path d="M21.7979 0.684342C21.3862 0.243099 20.8186 0 20.1993 0H18.4974C17.2431 0 16.046 1.00499 15.8292 2.24038L15.7219 2.85133C15.614 3.46611 15.7592 4.0484 16.1309 4.49099C16.5026 4.93358 17.0509 5.17724 17.6751 5.17724H19.8736C20.1786 5.17724 20.4736 5.11633 20.7478 5.00821L20.5141 7.00437C20.2892 6.90985 20.0423 6.8595 19.7828 6.8595H17.2745C16.1999 6.8595 15.1444 7.71467 14.9215 8.76574L12.7038 19.221L2.24039 18.4692C1.67496 18.4287 1.20292 18.6203 0.910254 18.9966C0.636135 19.3491 0.556001 19.8219 0.684462 20.3281L1.90097 25.1179C2.16453 26.1556 3.2501 27 4.32073 27H13.0927H13.2265H17.6917C18.7766 27 19.7524 26.1221 19.8668 25.0432L21.5833 8.86116C21.593 8.76866 21.5942 8.67752 21.591 8.58727L22.1785 3.56928C22.2614 3.35315 22.3141 3.12343 22.3307 2.88516L22.3695 2.32658C22.4127 1.70889 22.2096 1.1257 21.7979 0.684342Z" fill="#111111"/>
</svg>
