<svg width="27" height="27" viewBox="0 0 27 27" fill="none" xmlns="http://www.w3.org/2000/svg">
<path d="M24.8667 10.4V21.7667C24.8667 22.3373 24.4039 22.8 23.8333 22.8C23.2627 22.8 22.8 22.3373 22.8 21.7667V17.6333C22.8 15.9213 21.412 14.5333 19.7 14.5333H16.6V2.13332C16.6 0.991897 15.6747 0.0666504 14.5333 0.0666504H2.13332C0.991897 0.0666504 0.0666504 0.991897 0.0666504 2.13332V24.8667C0.0666504 26.0081 0.991897 26.9333 2.13332 26.9333H14.5333C15.6747 26.9333 16.6 26.0081 16.6 24.8667V16.6H19.7C20.2706 16.6 20.7333 17.0627 20.7333 17.6333V21.7667C20.7333 23.4787 22.1213 24.8667 23.8333 24.8667C25.5453 24.8667 26.9333 23.4787 26.9333 21.7667V8.33332C26.9333 7.1919 26.0081 6.26665 24.8667 6.26665V3.14598C24.8555 2.58344 24.3961 2.13311 23.8333 2.13332C23.2513 2.14303 22.7872 2.6225 22.7969 3.20468C22.7973 3.22638 22.7983 3.24828 22.8 3.26998V8.33332C22.8 9.47474 23.7252 10.4 24.8667 10.4C26.0081 10.4 26.9333 9.47474 26.9333 8.33332C26.9333 7.1919 26.0081 6.26665 24.8667 6.26665V10.4ZM14.5333 11.4333C14.5333 12.0039 14.0706 12.4667 13.5 12.4667H3.16665C2.59604 12.4667 2.13332 12.0039 2.13332 11.4333V5.23332C2.13332 4.66271 2.59604 4.19998 3.16665 4.19998H13.5C14.0706 4.19998 14.5333 4.66271 14.5333 5.23332V11.4333Z" fill="#111111"/>
</svg>
