<svg width="28" height="24" viewBox="0 0 28 24" fill="none" xmlns="http://www.w3.org/2000/svg">
<path d="M25.7402 20.6375C26.9283 18.5724 27.5739 16.2315 27.5739 13.7856C27.5739 8.72373 24.8242 4.30288 20.7471 1.90527C20.7229 1.88669 20.7062 1.86068 20.6793 1.84582C20.6588 1.83281 20.6328 1.83374 20.6115 1.82352C18.5975 0.66977 16.2705 0 13.7874 0C11.3043 0 8.97827 0.66977 6.96524 1.82166C6.94202 1.83374 6.91693 1.83374 6.89464 1.84675C6.86677 1.86254 6.85005 1.89041 6.82497 1.90806C4.79708 3.09989 3.10454 4.79151 1.91084 6.81847C1.89226 6.84541 1.86532 6.8612 1.8486 6.88999C1.8356 6.91322 1.8356 6.93923 1.82538 6.96152C0.673486 8.97269 0.00464473 11.2932 0.00278684 13.7716C0.00278684 13.7753 0 13.7791 0 13.7846C0 13.7893 0.00185789 13.793 0.00278684 13.7986C0.00464473 16.2371 0.646547 18.5715 1.8291 20.63C1.83746 20.6468 1.83746 20.6644 1.84675 20.6811C1.8644 20.709 1.88669 20.7304 1.90527 20.7573C2.49329 21.7569 3.20022 22.6951 4.04092 23.5367C4.24064 23.7364 4.50167 23.8358 4.76271 23.8358C5.02374 23.8358 5.28571 23.7364 5.4845 23.5367C5.88395 23.1373 5.88395 22.4916 5.4845 22.0922C4.99494 21.6026 4.56206 21.0704 4.17283 20.5176L5.88023 19.532C6.36793 19.2506 6.537 18.6263 6.2546 18.1386C5.97405 17.6509 5.34887 17.4818 4.86025 17.7642L3.15192 18.7508C2.57597 17.5171 2.21182 16.1906 2.09385 14.8102L4.066 14.812C4.06693 14.812 4.06693 14.812 4.06693 14.812C4.62987 14.812 5.08877 14.355 5.08877 13.7902C5.08877 13.2273 4.63173 12.7674 4.06786 12.7674L2.0957 12.7665C2.21647 11.3684 2.58712 10.0438 3.15656 8.82871L4.85746 9.81246C5.0191 9.90628 5.19374 9.94994 5.36838 9.94994C5.72138 9.94994 6.06416 9.76787 6.25274 9.43995C6.53607 8.95133 6.36793 8.32708 5.88116 8.04467L4.17747 7.05813C4.96429 5.93782 5.93968 4.9615 7.05999 4.17469L8.04375 5.8793C8.23325 6.20629 8.57603 6.38929 8.92903 6.38929C9.10182 6.38929 9.27739 6.34563 9.43902 6.25367C9.92579 5.9722 10.0949 5.34609 9.81246 4.85839L8.82964 3.1547C10.0456 2.58619 11.3694 2.21461 12.7665 2.09384V4.066C12.7665 4.62987 13.2236 5.08784 13.7884 5.08784C14.3532 5.08784 14.8102 4.6308 14.8102 4.066V2.09384C16.2073 2.21461 17.5301 2.58526 18.7452 3.1547L17.7605 4.85932C17.4772 5.34794 17.6444 5.9722 18.134 6.2546C18.2937 6.34749 18.4684 6.39115 18.644 6.39115C18.996 6.39115 19.3388 6.20815 19.5292 5.88023L20.5149 4.17376C23.2822 6.11525 25.1726 9.21422 25.4801 12.7637H23.5061C22.9431 12.7637 22.4833 13.2208 22.4833 13.7856C22.4833 14.3504 22.9403 14.8074 23.5061 14.8074H25.4829C25.3649 16.1869 24.9998 17.5144 24.4239 18.748L22.7137 17.7615C22.2269 17.48 21.6017 17.6463 21.3184 18.1349C21.0369 18.6226 21.2041 19.2468 21.6918 19.5302L23.4029 20.5167C23.0184 21.0639 22.5938 21.5869 22.1117 22.0699C21.7141 22.4703 21.716 23.1159 22.1164 23.5153C22.5158 23.9139 23.1633 23.9111 23.5609 23.5098C24.3951 22.6728 25.0946 21.7373 25.6798 20.7415C25.6947 20.722 25.7132 20.7044 25.7272 20.6821C25.7346 20.6653 25.7327 20.6514 25.7402 20.6375Z" fill="#111111"/>
</svg>
