<svg width="30" height="30" viewBox="0 0 30 30" fill="none" xmlns="http://www.w3.org/2000/svg">
<path d="M0.0682755 27.6233L4.75575 10.7484C4.98145 9.93674 5.72025 9.37507 6.56253 9.37507H13.125V8.97775C11.4844 8.25242 10.3125 6.60483 10.3125 4.6876C10.3125 2.1031 12.4155 0.00012207 15 0.00012207C17.5845 0.00012207 19.6875 2.1031 19.6875 4.6876C19.6875 6.60483 18.5156 8.25242 16.875 8.97775V9.37507H23.4374C24.2797 9.37507 25.0185 9.93674 25.2442 10.7484L29.9317 27.6233C30.0883 28.1877 29.9724 28.7933 29.6177 29.2598C29.2629 29.7263 28.7108 30 28.1249 30H1.87506C1.28913 30 0.737061 29.7263 0.382277 29.2598C0.0275536 28.7933 -0.0882282 28.1877 0.0682755 27.6233ZM15 3.75016C14.4832 3.75016 14.0625 4.17086 14.0625 4.68765C14.0625 5.20445 14.4832 5.62515 15 5.62515C15.5168 5.62515 15.9375 5.20445 15.9375 4.68765C15.9375 4.17086 15.5168 3.75016 15 3.75016Z" fill="#111111"/>
</svg>
