<svg width="7" height="15" viewBox="0 0 7 15" fill="none" xmlns="http://www.w3.org/2000/svg">
<path d="M4.05175 6.69413C2.52645 6.04652 1.99209 5.5919 1.99209 4.69907C1.99209 3.98235 2.38708 3.1755 3.73615 3.1755C4.85699 3.1755 5.5737 3.57996 5.94177 3.78878L6.37894 2.63328C5.85325 2.33628 5.13699 2.05466 4.10422 2.02195V0.320068H3.00037V2.07153C1.40607 2.33617 0.374911 3.43805 0.374911 4.89044C0.374911 6.41401 1.47876 7.23589 3.26258 7.93724C4.55999 8.46247 5.1311 9.05842 5.12902 10.0205C5.1311 11.0206 4.40075 11.7373 3.15915 11.7373C2.17768 11.7373 1.26578 11.3882 0.654456 10.9862L0.234619 12.1571C0.845943 12.5943 1.88069 12.9102 2.8944 12.9293V14.6788H3.99825V12.8586C5.80101 12.5786 6.76515 11.2816 6.76515 9.8825C6.76561 8.32495 5.85498 7.43154 4.05175 6.69413Z" fill="#FFCC00"/>
</svg>
